HIERARCHY
ROOT Hips
{
	OFFSET 0.00000 0.00000 0.00000
	CHANNELS 6 Xposition Yposition Zposition Zrotation Yrotation Xrotation 
	JOINT LHipJoint
	{
		OFFSET 0 0 0
		CHANNELS 3 Zrotation Yrotation Xrotation
		JOINT LeftHip
		{
			OFFSET 1.54859 -1.61379 0.86856
			CHANNELS 3 Zrotation Yrotation Xrotation
			JOINT LeftKnee
			{
				OFFSET 2.25087 -6.18423 0.00000
				CHANNELS 3 Zrotation Yrotation Xrotation
				JOINT LeftAnkle
				{
					OFFSET 2.40328 -6.60297 0.00000
					CHANNELS 3 Zrotation Yrotation Xrotation
					JOINT LeftToe
					{
						OFFSET 0.17435 -0.47901 2.02453
						CHANNELS 3 Zrotation Yrotation Xrotation
						End Site
						{
							OFFSET 0.00000 -0.00000 1.04844
						}
					}
				}
			}
		}
	}
	JOINT RHipJoint
	{
		OFFSET 0 0 0
		CHANNELS 3 Zrotation Yrotation Xrotation
		JOINT RightHip
		{
			OFFSET -1.54669 -1.61379 0.86856
			CHANNELS 3 Zrotation Yrotation Xrotation
			JOINT RightKnee
			{
				OFFSET -2.28132 -6.26789 0.00000
				CHANNELS 3 Zrotation Yrotation Xrotation
				JOINT RightAnkle
				{
					OFFSET -2.51636 -6.91365 0.00000
					CHANNELS 3 Zrotation Yrotation Xrotation
					JOINT RightToe
					{
						OFFSET -0.15124 -0.41552 2.21090
						CHANNELS 3 Zrotation Yrotation Xrotation
						End Site
						{
							OFFSET -0.00000 -0.00000 1.13399
						}
					}
				}
			}
		}
	}
	JOINT lowerback
	{
		OFFSET 0 0 0
		CHANNELS 3 Zrotation Yrotation Xrotation
		JOINT Chest
		{
			OFFSET -0.04287 2.26161 -0.25690
			CHANNELS 3 Zrotation Yrotation Xrotation
			JOINT Chest2
			{
				OFFSET 0.02248 2.28395 -0.10140
				CHANNELS 3 Zrotation Yrotation Xrotation
				JOINT lowerneck
				{
					OFFSET 0 0 0
					CHANNELS 3 Zrotation Yrotation Xrotation
					JOINT Neck
					{
						OFFSET -0.11644 1.38496 0.11345
						CHANNELS 3 Zrotation Yrotation Xrotation
						JOINT Head
						{
							OFFSET 0.29383 1.36600 0.06642
							CHANNELS 3 Zrotation Yrotation Xrotation
							End Site
							{
								OFFSET 0.11075 1.41395 -0.00294
							}
						}
					}
				}
				JOINT LeftCollar
				{
					OFFSET 0 0 0
					CHANNELS 3 Zrotation Yrotation Xrotation
					JOINT LeftShoulder
					{
						OFFSET 3.51628 0.59542 -0.30346
CHANNELS 3 Zrotation Xrotation Yrotation
						JOINT LeftElbow
						{
OFFSET 0 -4.764050 0.000000
CHANNELS 3 Zrotation Xrotation Yrotation
							JOINT LeftWrist
							{
OFFSET 0 -3.137590 -0.000000
CHANNELS 3 Zrotation Xrotation Yrotation
								JOINT lhand
								{
									OFFSET 0 0 0
CHANNELS 3 Zrotation Xrotation Yrotation
									JOINT LFingers
									{
OFFSET 0 -0.732260 -0.000000
CHANNELS 3 Zrotation Xrotation Yrotation
										End Site
										{
OFFSET 0 -0.590370 -0.000000
										}
									}
								}
								JOINT LThumb
								{
OFFSET 0 0.000000 0.000000
CHANNELS 3 Zrotation Xrotation Yrotation
									End Site
									{
OFFSET 0 -0.599380 0.599380
									}
								}
							}
						}
					}
				}
				JOINT RightCollar
				{
					OFFSET 0 0 0
					CHANNELS 3 Zrotation Yrotation Xrotation
					JOINT RightShoulder
					{
						OFFSET -3.30990 0.84213 -0.36430
CHANNELS 3 Zrotation Xrotation Yrotation
						JOINT RightElbow
						{
OFFSET 0 -5.101610 -0.000000
CHANNELS 3 Zrotation Xrotation Yrotation
							JOINT RightWrist
							{
OFFSET 0 -3.232670 -0.000000
CHANNELS 3 Zrotation Xrotation Yrotation
								JOINT rhand
								{
									OFFSET 0 0 0
CHANNELS 3 Zrotation Xrotation Yrotation
									JOINT RFingers
									{
OFFSET 0 -0.702000 -0.000000
CHANNELS 3 Zrotation Xrotation Yrotation
										End Site
										{
OFFSET 0 -0.565970 -0.000000
										}
									}
								}
								JOINT RThumb
								{
OFFSET 0 0.000000 0.000000
CHANNELS 3 Zrotation Xrotation Yrotation
									End Site
									{
OFFSET 0 -0.574610 0.574610
									}
								}
							}
						}
					}
				}
			}
		}
	}
}
MOTION
Frames: 12
Frame Time: 0.008333333333333333
29.793900 15.391200 -15.722000 -1.844500 -42.541700 -2.899200 0.000000 0.000000 0.000000 -16.796500 5.770400 3.599200 2.232100 9.333700 26.845000 1.933500 8.852700 -30.690200 0.694200 -5.326200 -14.841400 0.000000 0.000000 0.000000 12.619500 6.543800 -14.722400 -3.608100 -11.619700 34.399700 0.365700 -16.640100 -19.726500 -0.207100 2.930000 -8.084000 -5.234500 -0.758100 3.214200 1.679300 -1.171600 7.163600 4.664400 -0.973000 5.812400 -17.388000 -18.219500 18.020800 32.250000 -24.457700 -21.514600 13.883300 -14.371400 -2.478400 -0.000000 -0.000000 0.000000 -7.196800 -3.308000 -16.747100 12.354700 -20.334400 2.224000 18.539500 7.639400 -26.797100 0.000000 0.000000 0.000000 -7.125000 0.000000 0.000000 -12.871500 57.558900 4.002400 -0.000000 -0.000000 0.000000 2.822100 -8.623800 11.091800 -15.151600 -24.356800 -3.288200 -15.992300 4.309700 -24.551800 0.000000 0.000000 0.000000 7.125000 0.000000 -0.000000 8.227200 4.784600 7.592600
29.795525 15.386226 -15.723083 -1.799339 -42.535692 -2.947365 0.000000 0.000000 0.000000 -16.851708 5.740063 3.634758 2.220133 9.310307 26.771028 1.894692 9.098648 -30.609087 0.758667 -5.557275 -15.506603 0.000000 0.000000 0.000000 12.554098 6.383200 -14.851284 -3.633956 -11.656538 34.527796 0.348463 -16.481765 -19.663412 -0.220102 3.018598 -8.330638 -5.264591 -0.759380 3.252220 1.662014 -1.174604 7.166752 4.663612 -0.975265 5.795064 -17.367611 -18.209059 17.990364 32.235619 -24.435243 -21.518885 13.876701 -14.358448 -2.485640 0.000000 0.000000 0.000000 -7.169418 -3.363750 -16.699181 12.292351 -20.241566 2.202429 19.231100 8.146564 -26.884714 0.000000 0.000000 0.000000 -7.125000 0.000000 0.000000 -12.182953 57.797609 3.850418 0.000000 0.000000 0.000000 2.833230 -8.707818 11.133957 -15.087872 -24.268300 -3.262000 -16.133545 4.308666 -24.385093 0.000000 0.000000 0.000000 7.125000 0.000000 0.000000 8.129096 4.933183 7.477506
29.797150 15.381252 -15.724167 -1.754178 -42.529683 -2.995531 0.000000 0.000000 0.000000 -16.906916 5.709726 3.670315 2.208165 9.286914 26.697057 1.855884 9.344596 -30.527975 0.823133 -5.788350 -16.171806 0.000000 0.000000 0.000000 12.488695 6.222600 -14.980168 -3.659811 -11.693376 34.655892 0.331226 -16.323431 -19.600325 -0.233103 3.107197 -8.577275 -5.294682 -0.760661 3.290240 1.644727 -1.177608 7.169904 4.662824 -0.977531 5.777729 -17.347222 -18.198619 17.959929 32.221239 -24.412785 -21.523169 13.870101 -14.345495 -2.492879 0.000000 0.000000 0.000000 -7.142035 -3.419499 -16.651262 12.230002 -20.148732 2.180858 19.922700 8.653727 -26.972327 0.000000 0.000000 0.000000 -7.125000 0.000000 0.000000 -11.494407 58.036317 3.698437 0.000000 0.000000 0.000000 2.844360 -8.791837 11.176114 -15.024144 -24.179800 -3.235799 -16.274791 4.307632 -24.218386 0.000000 0.000000 0.000000 7.125000 0.000000 0.000000 8.030993 5.081767 7.362411
29.798394 15.377233 -15.724630 -1.650814 -42.523102 -3.061887 0.000000 0.000000 0.000000 -16.994018 5.700588 3.639983 2.213100 9.296513 26.727411 1.855225 9.357066 -30.532375 0.837180 -5.836414 -16.310654 0.000000 0.000000 0.000000 12.361748 5.945212 -15.139848 -3.668956 -11.706293 34.700814 0.318334 -16.122793 -19.417585 -0.263198 3.294630 -9.100555 -5.377533 -0.767289 3.307061 1.614263 -1.185483 7.145936 4.677745 -0.983186 5.745592 -17.393487 -18.191186 17.920039 32.185850 -24.441368 -21.318373 13.832324 -14.346294 -2.420812 0.000000 0.000000 0.000000 -7.113603 -3.409741 -16.727149 12.213203 -20.123650 2.175091 20.048078 8.436007 -26.668039 0.000000 0.000000 0.000000 -7.125000 0.000000 0.000000 -11.201437 57.758268 3.529696 0.000000 0.000000 0.000000 2.861554 -8.813164 11.228011 -14.973833 -24.109635 -3.215233 -16.217555 4.252358 -24.104009 0.000000 0.000000 0.000000 7.125000 0.000000 0.000000 8.058653 5.205713 7.369022
29.799625 15.373243 -15.725073 -1.545619 -42.516503 -3.128816 0.000000 0.000000 0.000000 -17.082124 5.692117 3.607577 2.218566 9.307151 26.761048 1.855767 9.362187 -30.539467 0.849640 -5.878719 -16.432939 0.000000 0.000000 0.000000 12.232864 5.664150 -15.300498 -3.677574 -11.718458 34.743119 0.305578 -15.920824 -19.231080 -0.293831 3.485174 -9.632540 -5.462043 -0.774085 3.323214 1.583384 -1.193510 7.121115 4.693159 -0.988948 5.712989 -17.441849 -18.183848 17.879852 32.149800 -24.471558 -21.106997 13.793565 -14.347525 -2.346250 0.000000 0.000000 0.000000 -7.085137 -3.397921 -16.806932 12.197838 -20.100700 2.169822 20.155637 8.195476 -26.351419 0.000000 0.000000 0.000000 -7.125000 0.000000 0.000000 -10.920917 57.463958 3.360428 0.000000 0.000000 0.000000 2.878939 -8.832519 11.280215 -14.923944 -24.040046 -3.194844 -16.154073 4.195377 -23.991278 0.000000 0.000000 0.000000 7.125000 0.000000 0.000000 8.090271 5.328884 7.379463
29.801504 15.371983 -15.726626 -1.443753 -42.516285 -3.179699 0.000000 0.000000 0.000000 -17.149004 5.721705 3.555056 2.223941 9.317650 26.794222 1.890899 9.096460 -30.584710 0.787416 -5.659053 -15.799693 0.000000 0.000000 0.000000 12.113691 5.425261 -15.462488 -3.684759 -11.728634 34.778579 0.305771 -15.804313 -19.029962 -0.341759 3.746655 -10.366055 -5.546231 -0.785367 3.355784 1.554632 -1.208844 7.086906 4.710840 -0.997531 5.661982 -17.543900 -18.131098 17.696356 32.067922 -24.450972 -20.815481 13.726690 -14.305749 -2.238253 0.000000 0.000000 0.000000 -7.062082 -3.353361 -17.138512 12.279676 -20.222632 2.198125 20.585053 8.044658 -26.760594 0.000000 0.000000 0.000000 -7.125000 0.000000 0.000000 -10.672026 57.971745 3.409754 0.000000 0.000000 0.000000 2.885133 -8.841654 11.392581 -14.875905 -23.972862 -3.175334 -16.091563 4.035827 -23.920907 0.000000 0.000000 0.000000 7.125000 0.000000 0.000000 8.124293 5.408864 7.398644
29.803424 15.370899 -15.728251 -1.342104 -42.516482 -3.229538 0.000000 0.000000 0.000000 -17.214505 5.753766 3.501227 2.229309 9.328140 26.827366 1.928279 8.813132 -30.632432 0.720339 -5.422363 -15.117352 0.000000 0.000000 0.000000 11.995150 5.189114 -15.624566 -3.691851 -11.738680 34.813595 0.306805 -15.693355 -18.827894 -0.390811 4.012746 -11.112666 -5.630397 -0.796941 3.389421 1.526019 -1.224653 7.052087 4.728668 -1.006298 5.609778 -17.649440 -18.075398 17.503547 31.983066 -24.427086 -20.518758 13.657988 -14.261179 -2.128083 0.000000 0.000000 0.000000 -7.039378 -3.306673 -17.486454 12.367832 -20.353978 2.228610 21.035383 7.899670 -27.216933 0.000000 0.000000 0.000000 -7.125000 0.000000 0.000000 -10.425192 58.531654 3.473285 0.000000 0.000000 0.000000 2.890600 -8.850125 11.508858 -14.827986 -23.905835 -3.155880 -16.029116 3.869613 -23.853289 0.000000 0.000000 0.000000 7.125000 0.000000 0.000000 8.158472 5.486037 7.418392
29.805703 15.372321 -15.730548 -1.286448 -42.508760 -3.261705 0.000000 0.000000 0.000000 -17.230701 5.788958 3.455854 2.238256 9.345565 26.882479 1.976933 8.432089 -30.695501 0.626239 -5.047513 -14.047417 0.000000 0.000000 0.000000 11.925734 4.959766 -15.748255 -3.696124 -11.744701 34.834607 0.306139 -15.574703 -18.632762 -0.417536 4.145776 -11.487298 -5.696353 -0.808290 3.424222 1.511857 -1.241312 7.046439 4.751328 -1.016943 5.588177 -17.651583 -18.027035 17.348544 31.890157 -24.374566 -20.334648 13.598547 -14.212538 -2.079388 0.000000 0.000000 0.000000 -7.018911 -3.336940 -17.489263 12.358048 -20.339468 2.225181 20.995126 7.923312 -27.072129 0.000000 0.000000 0.000000 -7.125000 0.000000 0.000000 -10.392757 58.376240 3.424113 0.000000 0.000000 0.000000 2.899377 -8.919175 11.584464 -14.770403 -23.825206 -3.132624 -16.085680 3.755119 -23.842850 0.000000 0.000000 0.000000 7.125000 0.000000 0.000000 8.122809 5.488715 7.384899
29.808018 15.373996 -15.732912 -1.235426 -42.500240 -3.292092 0.000000 0.000000 0.000000 -17.241930 5.824467 3.411333 2.247564 9.363688 26.939804 2.026724 8.041202 -30.760115 0.529416 -4.658743 -12.938434 0.000000 0.000000 0.000000 11.861267 4.731105 -15.868078 -3.700113 -11.750315 34.854208 0.305302 -15.455274 -18.438328 -0.442013 4.265402 -11.824455 -5.760475 -0.819618 3.459139 1.499151 -1.258057 7.043731 4.774475 -1.027778 5.569660 -17.643310 -17.979412 17.197351 31.796437 -24.319161 -20.161883 13.540040 -14.163486 -2.036887 0.000000 0.000000 0.000000 -6.998670 -3.374960 -17.457301 12.338398 -20.310264 2.218335 20.905444 7.963942 -26.866762 0.000000 0.000000 0.000000 -7.125000 0.000000 0.000000 -10.381922 58.148760 3.363586 0.000000 0.000000 0.000000 2.908488 -8.994329 11.655973 -14.711846 -23.743207 -3.108985 -16.154234 3.645836 -23.838171 0.000000 0.000000 0.000000 7.125000 0.000000 0.000000 8.080111 5.483889 7.346042
29.809381 15.375194 -15.734886 -1.212510 -42.488174 -3.311150 0.000000 0.000000 0.000000 -17.246283 5.825211 3.399328 2.257218 9.382460 26.999205 2.059824 7.816481 -30.828707 0.478382 -4.430649 -12.292234 0.000000 0.000000 0.000000 11.820971 4.481861 -15.980938 -3.705356 -11.757702 34.880035 0.293439 -15.277258 -18.289899 -0.448935 4.298593 -11.918135 -5.814047 -0.824070 3.476545 1.503308 -1.265418 7.060825 4.809124 -1.035543 5.581366 -17.519113 -17.953408 17.050351 31.598987 -24.257227 -20.084936 13.447633 -14.108770 -2.057643 0.000000 0.000000 0.000000 -6.985131 -3.409219 -17.564524 12.359565 -20.341723 2.225715 20.398465 7.624201 -26.466388 0.000000 0.000000 0.000000 -7.125000 0.000000 0.000000 -10.718813 57.634651 3.335964 0.000000 0.000000 0.000000 2.900736 -9.113153 11.686622 -14.658997 -23.668904 -3.087767 -16.180414 3.636175 -23.836043 0.000000 0.000000 0.000000 7.125000 0.000000 0.000000 8.063788 5.482392 7.331139
29.810612 15.376327 -15.736807 -1.193500 -42.475616 -3.328633 0.000000 0.000000 0.000000 -17.249682 5.821124 3.391842 2.266920 9.401323 27.058895 2.090605 7.614856 -30.897852 0.433714 -4.224887 -11.710360 0.000000 0.000000 0.000000 11.784034 4.229757 -16.092832 -3.710774 -11.765336 34.906728 0.280043 -15.091097 -18.147866 -0.453416 4.319770 -11.977972 -5.866152 -0.827567 3.491516 1.509808 -1.271476 7.080672 4.845371 -1.042881 5.597273 -17.378803 -17.930408 16.903935 31.387119 -24.194386 -20.021306 13.350515 -14.053267 -2.087192 0.000000 0.000000 0.000000 -6.972523 -3.442954 -17.691093 12.386406 -20.381615 2.235073 19.833484 7.231590 -26.038909 0.000000 0.000000 0.000000 -7.125000 0.000000 0.000000 -11.104037 57.080701 3.312916 0.000000 0.000000 0.000000 2.890640 -9.238048 11.711591 -14.606941 -23.595671 -3.066885 -16.200705 3.640361 -23.834270 0.000000 0.000000 0.000000 7.125000 0.000000 0.000000 8.051131 5.481358 7.319565
29.812929 15.376500 -15.738519 -1.185341 -42.471530 -3.364355 0.000000 0.000000 0.000000 -17.255542 5.821293 3.393622 2.276038 9.418849 27.114452 2.095759 7.576295 -30.906564 0.435164 -4.232899 -11.732827 0.000000 0.000000 0.000000 11.755821 3.974898 -16.192454 -3.720156 -11.778437 34.952578 0.256464 -14.865288 -18.080916 -0.463658 4.367240 -12.112225 -5.878524 -0.821631 3.568132 1.512553 -1.268602 7.091463 4.856534 -1.041830 5.565393 -17.317208 -17.923895 16.803553 31.286812 -24.173615 -19.955840 13.295633 -14.028857 -2.082977 0.000000 0.000000 0.000000 -6.947186 -3.453442 -17.897253 12.423054 -20.436072 2.247852 18.349637 6.081341 -24.726455 0.000000 0.000000 0.000000 -7.125000 0.000000 0.000000 -12.007291 55.474539 3.074133 0.000000 0.000000 0.000000 2.878791 -9.323586 11.755383 -14.597289 -23.582121 -3.063032 -16.029551 3.649556 -23.786421 0.000000 0.000000 0.000000 7.125000 0.000000 0.000000 8.153916 5.553529 7.403484
